<svg xmlns="http://www.w3.org/2000/svg" width="600" height="333.334" viewBox="0 0 600 333.334"><path fill="#00bcb4" d="M0 0h500v59.144H0z"/><path fill="#e6417a" d="M0 202.503h433.333v59.146H0z"/><path fill="#a4aaaa" d="M0 274.188h533.333v59.145H0z"/><path d="M0 71.684v118.283h600V71.684H0z"/><path d="M79.54 102.252c8.403 0 12.728 5.28 14.403 12.124h16.93c-3-17.892-15.486-27.01-31.453-27.01-9.365 0-17.049 3.358-23.052 9.362-8.643 8.645-8.403 19.33-8.403 34.1 0 14.763-.24 25.45 8.403 34.094 6.003 6 13.687 9.368 23.052 9.368 15.848 0 28.453-9.126 31.454-27.018H93.943c-1.675 6.847-6 12.125-14.403 12.125-4.564 0-8.284-1.682-10.685-4.44-3.244-3.601-4.203-7.685-4.203-24.13 0-16.451.959-20.535 4.203-24.131 2.401-2.76 6.12-4.444 10.685-4.444zm94.473 38.178L140.16 88.083h-14.89v85.485h16.69v-52.467l33.857 52.467h14.889V88.083h-16.693v52.347zm36.605 33.138h56.311V158.68h-39.623v-20.772h33.742v-14.887h-33.742v-20.053h39.623V88.083h-56.31v85.485zm126.053-77.323c-5.646-5.64-13.689-8.157-22.568-8.157h-30.855v85.476h30.855c8.88 0 16.922-2.522 22.568-8.162 9.61-9.602 8.645-22.09 8.645-34.938 0-12.845.964-24.611-8.645-34.219zm-11.645 57.15c-2.875 3.48-6.72 5.285-12.485 5.285h-12.609v-55.712h12.61c5.764 0 9.609 1.805 12.484 5.285 3.124 3.842 3.602 9.246 3.602 22.211 0 12.968-.478 19.089-3.602 22.931z" fill="#fff"/></svg>